<svg width="18" height="18" viewBox="0 0 18 18" fill="none" xmlns="http://www.w3.org/2000/svg">
<path d="M0.899999 2.7C0.402943 2.20294 0.402944 1.39706 0.9 0.9V0.9C1.39706 0.402944 2.20294 0.402944 2.7 0.9L17.1 15.3C17.5971 15.7971 17.5971 16.6029 17.1 17.1V17.1C16.6029 17.5971 15.7971 17.5971 15.3 17.1L0.899999 2.7Z" fill="#343434"/>
<path d="M0.9 17.1C0.402943 16.6029 0.402944 15.7971 0.9 15.3L15.3 0.899999C15.7971 0.402943 16.6029 0.402943 17.1 0.9V0.9C17.5971 1.39706 17.5971 2.20294 17.1 2.7L2.7 17.1C2.20294 17.5971 1.39706 17.5971 0.9 17.1V17.1Z" fill="#343434"/>
</svg>
